Coordinates
version=1
nRows=5
nColumns=40
inDegrees=yes

Units are S.I. units (second, meters, Newtons, ...)
Angles are in degrees.

endheader
time	pelvis_tilt	pelvis_list	pelvis_rotation	pelvis_tx	pelvis_ty	pelvis_tz	hip_flexion_r	hip_adduction_r	hip_rotation_r	knee_angle_r	knee_angle_r_beta	ankle_angle_r	subtalar_angle_r	mtp_angle_r	hip_flexion_l	hip_adduction_l	hip_rotation_l	knee_angle_l	knee_angle_l_beta	ankle_angle_l	subtalar_angle_l	mtp_angle_l	lumbar_extension	lumbar_bending	lumbar_rotation	arm_flex_r	arm_add_r	arm_rot_r	elbow_flex_r	pro_sup_r	wrist_flex_r	wrist_dev_r	arm_flex_l	arm_add_l	arm_rot_l	elbow_flex_l	pro_sup_l	wrist_flex_l	wrist_dev_l
      6.10000000	     -2.46445405	     -5.51291346	      2.10579075	      1.03559257	      0.93061172	      0.50882950	     10.92171088	      3.58456063	    -13.78507991	     16.85346487	     16.85346487	     10.21770562	     -1.20420631	     -5.58264264	     30.16182345	    -14.57654418	      1.61390934	     61.59702853	     61.59702853	      8.88890122	    -18.68716444	     13.28260913	     -9.86044215	      6.27501800	      3.30893754	     22.93747020	    -19.90074740	     -5.85165167	     69.28704705	     45.53344019	      0.00000000	      0.00000000	      5.42658701	     -9.80945517	     -3.42711525	     28.30297337	     45.50561332	      0.00000000	      0.00000000
      6.11328571	     -2.51504831	     -5.46546140	      2.59209326	      1.03537362	      0.93084970	      0.50905730	     10.37555283	      3.64957598	    -13.81337190	     16.41457659	     16.41457659	     10.29297636	     -1.68748483	     -5.68152780	     31.14040446	    -14.60629487	      1.18639139	     59.35877336	     59.35877336	      9.47848232	    -18.90979775	     14.17672502	     -9.88931116	      6.20068414	      3.24887860	     23.96157638	    -20.10158731	     -6.15518336	     73.06393609	     45.41947003	      0.00000000	      0.00000000	      4.08672491	     -9.48160267	     -3.32561972	     27.75937024	     45.50063952	      0.00000000	      0.00000000
      6.12657143	     -2.51615770	     -5.35197276	      3.06411648	      1.03516821	      0.93116141	      0.50920357	      9.77937058	      3.61963953	    -13.96043047	     16.01428429	     16.01428429	     10.47636061	     -1.90819049	     -5.67830928	     31.83508113	    -14.51060384	      0.66252502	     56.79078448	     56.79078448	      9.87322654	    -19.06921273	     14.73268005	     -9.94447834	      6.05854009	      2.88158513	     25.68957563	    -19.83938758	     -6.44602207	     75.46814875	     45.35749105	      0.00000000	      0.00000000	      2.71897484	     -9.18292416	     -3.13567816	     26.92521458	     45.45855281	      0.00000000	      0.00000000
      6.13985714	     -2.59027185	     -5.25426632	      3.51054044	      1.03489684	      0.93128353	      0.50924753	      9.29291459	      3.59869975	    -14.06223730	     15.64649222	     15.64649222	     10.58714443	     -2.19477474	     -5.85594634	     32.47562048	    -14.30136397	      0.21860597	     54.07444838	     54.07444838	     10.44289043	    -19.11494629	     15.86570021	     -9.99639528	      5.94251347	      3.17353340	     26.46243355	    -20.28925012	     -6.94607257	     79.45532543	     45.25173939	      0.00000000	      0.00000000	      1.70030291	     -8.83016734	     -2.61709691	     26.27545495	     45.38860108	      0.00000000	      0.00000000
      6.15314286	     -2.66015508	     -5.09142984	      3.93006595	      1.03458505	      0.93140526	      0.50911063	      8.82784548	      3.48304369	    -14.20095593	     15.33826825	     15.33826825	     10.79119737	     -2.37698122	     -5.86539620	     32.89801810	    -13.91241580	     -0.19399368	     51.11261752	     51.11261752	     10.68677664	    -19.13282743	     16.30200326	     -9.97814308	      5.75513970	      3.05984129	     28.16978659	    -20.18065939	     -7.26675683	     81.35112973	     45.20926212	      0.00000000	      0.00000000	      0.51482742	     -8.54246885	     -2.42486641	     25.60152946	     45.34342350	      0.00000000	      0.00000000
